# Blender v2.93.2 OBJ File: ''
# www.blender.org
mtllib sphere.mtl
o Cube_Cube.001
v -0.270950 -0.270950 0.270950
v -0.270950 0.270950 0.270950
v -0.270950 -0.270950 -0.270950
v -0.270950 0.270950 -0.270950
v 0.270950 -0.270950 0.270950
v 0.270950 0.270950 0.270950
v 0.270950 -0.270950 -0.270950
v 0.270950 0.270950 -0.270950
v -0.331845 -0.331845 0.000000
v -0.331845 0.000000 0.331845
v -0.331845 0.331845 0.000000
v -0.331845 0.000000 -0.331845
v -0.000000 -0.331845 -0.331845
v -0.000000 0.331845 -0.331845
v 0.331845 0.000000 -0.331845
v 0.331845 -0.331845 0.000000
v 0.331845 0.331845 0.000000
v 0.331845 0.000000 0.331845
v -0.000000 -0.331845 0.331845
v -0.000000 0.331845 0.331845
v -0.000000 0.469299 0.000000
v -0.000000 -0.469299 0.000000
v -0.000000 0.000000 0.469299
v 0.469299 0.000000 0.000000
v -0.000000 0.000000 -0.469299
v -0.469299 0.000000 0.000000
v -0.331845 -0.331845 0.000000
v -0.331845 -0.331845 0.000000
v -0.331845 -0.331845 0.000000
v -0.270950 -0.270950 0.270950
v -0.270950 -0.270950 0.270950
v -0.331845 0.000000 0.331845
v -0.331845 0.000000 0.331845
v -0.331845 0.000000 0.331845
v -0.270950 0.270950 0.270950
v -0.270950 0.270950 0.270950
v -0.331845 0.331845 0.000000
v -0.331845 0.331845 0.000000
v -0.331845 0.331845 0.000000
v -0.270950 0.270950 -0.270950
v -0.270950 0.270950 -0.270950
v -0.331845 0.000000 -0.331845
v -0.331845 0.000000 -0.331845
v -0.331845 0.000000 -0.331845
v -0.270950 -0.270950 -0.270950
v -0.270950 -0.270950 -0.270950
v -0.000000 -0.331845 -0.331845
v -0.000000 -0.331845 -0.331845
v -0.000000 -0.331845 -0.331845
v -0.000000 0.331845 -0.331845
v -0.000000 0.331845 -0.331845
v -0.000000 0.331845 -0.331845
v 0.270950 0.270950 -0.270950
v 0.270950 0.270950 -0.270950
v 0.331845 0.000000 -0.331845
v 0.331845 0.000000 -0.331845
v 0.331845 0.000000 -0.331845
v 0.270950 -0.270950 -0.270950
v 0.270950 -0.270950 -0.270950
v 0.331845 -0.331845 0.000000
v 0.331845 -0.331845 0.000000
v 0.331845 -0.331845 0.000000
v 0.331845 0.331845 0.000000
v 0.331845 0.331845 0.000000
v 0.331845 0.331845 0.000000
v 0.270950 0.270950 0.270950
v 0.270950 0.270950 0.270950
v 0.331845 0.000000 0.331845
v 0.331845 0.000000 0.331845
v 0.331845 0.000000 0.331845
v 0.270950 -0.270950 0.270950
v 0.270950 -0.270950 0.270950
v -0.000000 -0.331845 0.331845
v -0.000000 -0.331845 0.331845
v -0.000000 -0.331845 0.331845
v -0.000000 0.331845 0.331845
v -0.000000 0.331845 0.331845
v -0.000000 0.331845 0.331845
v -0.000000 0.469299 0.000000
v -0.000000 0.469299 0.000000
v -0.000000 0.469299 0.000000
v -0.000000 -0.469299 0.000000
v -0.000000 -0.469299 0.000000
v -0.000000 -0.469299 0.000000
v -0.000000 0.000000 0.469299
v -0.000000 0.000000 0.469299
v -0.000000 0.000000 0.469299
v 0.469299 0.000000 0.000000
v 0.469299 0.000000 0.000000
v 0.469299 0.000000 0.000000
v -0.000000 0.000000 -0.469299
v -0.000000 0.000000 -0.469299
v -0.000000 0.000000 -0.469299
v -0.469299 0.000000 0.000000
v -0.469299 0.000000 0.000000
v -0.469299 0.000000 0.000000
vt 0.500000 0.500000
vt 0.788675 0.788675
vt 0.853553 0.500000
vt 0.500000 0.500000
vt 0.788675 0.788675
vt 0.853553 0.500000
vt 0.500000 0.500000
vt 0.211325 0.788675
vt 0.146447 0.500000
vt 0.500000 0.500000
vt 0.211325 0.788675
vt 0.146447 0.500000
vt 0.500000 0.500000
vt 0.788675 0.211325
vt 0.500000 0.146447
vt 0.500000 0.500000
vt 0.211325 0.211325
vt 0.500000 0.146447
vt 0.500000 0.500000
vt 0.788675 0.211325
vt 0.853553 0.500000
vt 0.788675 0.788675
vt 0.500000 0.500000
vt 0.853553 0.500000
vt 0.211325 0.788675
vt 0.500000 0.500000
vt 0.500000 0.853553
vt 0.500000 0.500000
vt 0.211325 0.211325
vt 0.146447 0.500000
vt 0.211325 0.788675
vt 0.500000 0.500000
vt 0.146447 0.500000
vt 0.788675 0.788675
vt 0.500000 0.500000
vt 0.500000 0.853553
vt 0.500000 0.500000
vt 0.211325 0.211325
vt 0.500000 0.146447
vt 0.788675 0.211325
vt 0.500000 0.500000
vt 0.500000 0.146447
vt 0.788675 0.788675
vt 0.500000 0.500000
vt 0.853553 0.500000
vt 0.500000 0.500000
vt 0.211325 0.211325
vt 0.500000 0.146447
vt 0.788675 0.211325
vt 0.500000 0.500000
vt 0.500000 0.146447
vt 0.788675 0.788675
vt 0.500000 0.500000
vt 0.853553 0.500000
vt 0.500000 0.500000
vt 0.788675 0.211325
vt 0.500000 0.146447
vt 0.211325 0.211325
vt 0.500000 0.500000
vt 0.500000 0.146447
vt 0.211325 0.788675
vt 0.500000 0.500000
vt 0.146447 0.500000
vt 0.500000 0.500000
vt 0.788675 0.211325
vt 0.500000 0.146447
vt 0.211325 0.211325
vt 0.500000 0.500000
vt 0.500000 0.146447
vt 0.211325 0.788675
vt 0.500000 0.500000
vt 0.146447 0.500000
vt 0.500000 0.853553
vt 0.500000 0.853553
vt 0.500000 0.853553
vt 0.500000 0.853553
vt 0.853553 0.500000
vt 0.146447 0.500000
vt 0.500000 0.146447
vt 0.500000 0.853553
vt 0.146447 0.500000
vt 0.500000 0.146447
vt 0.500000 0.853553
vt 0.853553 0.500000
vt 0.146447 0.500000
vt 0.853553 0.500000
vt 0.500000 0.853553
vt 0.146447 0.500000
vt 0.853553 0.500000
vt 0.500000 0.853553
vt 0.853553 0.500000
vt 0.146447 0.500000
vt 0.500000 0.853553
vt 0.853553 0.500000
vt 0.146447 0.500000
vt 0.500000 0.853553
vn -0.8865 0.2817 -0.3672
vn 0.3672 0.2817 -0.8865
vn 0.8865 0.2817 0.3672
vn -0.3672 0.2817 0.8865
vn 0.2817 -0.8865 0.3672
vn -0.2817 0.8865 0.3672
vn 0.3672 0.8865 0.2817
vn 0.3672 0.8865 -0.2817
vn -0.2817 0.8865 -0.3672
vn -0.3672 -0.8865 0.2817
vn -0.3672 -0.8865 -0.2817
vn 0.2817 -0.8865 -0.3672
vn -0.2817 -0.3672 0.8865
vn 0.2817 -0.3672 0.8865
vn 0.3672 0.2817 0.8865
vn 0.8865 -0.3672 0.2817
vn 0.8865 -0.3672 -0.2817
vn 0.8865 0.2817 -0.3672
vn 0.2817 -0.3672 -0.8865
vn -0.2817 -0.3672 -0.8865
vn -0.3672 0.2817 -0.8865
vn -0.8865 -0.3672 -0.2817
vn -0.8865 -0.3672 0.2817
vn -0.8865 0.2817 0.3672
vn -0.8865 0.3672 -0.2817
vn 0.2817 0.3672 -0.8865
vn 0.8865 0.3672 0.2817
vn -0.2817 0.3672 0.8865
vn 0.3672 -0.8865 0.2817
vn -0.3672 0.8865 0.2817
vn 0.2817 0.8865 0.3672
vn 0.2817 0.8865 -0.3672
vn -0.3672 0.8865 -0.2817
vn -0.2817 -0.8865 0.3672
vn -0.2817 -0.8865 -0.3672
vn 0.3672 -0.8865 -0.2817
vn -0.3672 -0.2817 0.8865
vn 0.3672 -0.2817 0.8865
vn 0.2817 0.3672 0.8865
vn 0.8865 -0.2817 0.3672
vn 0.8865 -0.2817 -0.3672
vn 0.8865 0.3672 -0.2817
vn 0.3672 -0.2817 -0.8865
vn -0.3672 -0.2817 -0.8865
vn -0.2817 0.3672 -0.8865
vn -0.8865 -0.2817 -0.3672
vn -0.8865 -0.2817 0.3672
vn -0.8865 0.3672 0.2817
usemtl Material.001
s off
f 94/1/1 40/2/1 43/3/1
f 91/4/2 53/5/2 56/6/2
f 88/7/3 66/8/3 69/9/3
f 85/10/4 35/11/4 32/12/4
f 82/13/5 72/14/5 73/15/5
f 79/16/6 36/17/6 78/18/6
f 81/19/7 67/20/7 65/21/7
f 54/22/8 80/23/8 64/24/8
f 41/25/9 21/26/9 51/27/9
f 84/28/10 30/29/10 27/30/10
f 46/31/11 83/32/11 28/33/11
f 59/34/12 22/35/12 48/36/12
f 87/37/13 31/38/13 75/39/13
f 71/40/14 86/41/14 19/42/14
f 6/43/15 23/44/15 70/45/15
f 90/46/16 5/47/16 62/48/16
f 58/49/17 89/50/17 16/51/17
f 8/52/18 24/53/18 57/54/18
f 93/55/19 7/56/19 49/57/19
f 45/58/20 92/59/20 13/60/20
f 4/61/21 25/62/21 44/63/21
f 96/64/22 3/65/22 29/66/22
f 1/67/23 95/68/23 9/69/23
f 2/70/24 26/71/24 10/72/24
f 94/1/25 37/73/25 40/2/25
f 91/4/26 50/74/26 53/5/26
f 88/7/27 63/75/27 66/8/27
f 85/10/28 76/76/28 35/11/28
f 82/13/29 61/77/29 72/14/29
f 79/16/30 38/78/30 36/17/30
f 81/19/31 77/79/31 67/20/31
f 54/22/32 52/80/32 80/23/32
f 41/25/33 11/81/33 21/26/33
f 84/28/34 74/82/34 30/29/34
f 46/31/35 47/83/35 83/32/35
f 59/34/36 60/84/36 22/35/36
f 87/37/37 33/85/37 31/38/37
f 71/40/38 68/86/38 86/41/38
f 6/43/39 20/87/39 23/44/39
f 90/46/40 18/88/40 5/47/40
f 58/49/41 55/89/41 89/50/41
f 8/52/42 17/90/42 24/53/42
f 93/55/43 15/91/43 7/56/43
f 45/58/44 42/92/44 92/59/44
f 4/61/45 14/93/45 25/62/45
f 96/64/46 12/94/46 3/65/46
f 1/67/47 34/95/47 95/68/47
f 2/70/48 39/96/48 26/71/48
